HIERARCHY
ROOT Hips
{
	OFFSET	0.00	0.00	0.00
	CHANNELS 6 Xposition Yposition Zposition Zrotation Xrotation Yrotation
	JOINT Chest
	{
		OFFSET	 0.00	 5.21	 0.00
		CHANNELS 3 Zrotation Xrotation Yrotation
		JOINT Neck
		{
			OFFSET	 0.00	 18.65	 0.00
			CHANNELS 3 Zrotation Xrotation Yrotation
			JOINT Head
			{
				OFFSET	 0.00	 5.45	 0.00
				CHANNELS 3 Zrotation Xrotation Yrotation
				End Site 
				{
					OFFSET	 0.00	 3.87	 0.00
				}
			}
		}
		JOINT LeftCollar
		{
			OFFSET	 1.12	 16.23	 1.87
			CHANNELS 3 Zrotation Xrotation Yrotation
			JOINT LeftUpArm
			{
				OFFSET	 5.54	 0.00	 0.00
				CHANNELS 3 Zrotation Xrotation Yrotation
				JOINT LeftLowArm
				{
					OFFSET	 0.00	-11.96	 0.00
					CHANNELS 3 Zrotation Xrotation Yrotation
					JOINT LeftHand
					{
						OFFSET	 0.00	-9.93	 0.00
						CHANNELS 3 Zrotation Xrotation Yrotation
						End Site 
						{
							OFFSET	 0.00	-7.00	 0.00
						}
					}
				}
			}
		}
		JOINT RightCollar
		{
			OFFSET	-1.12	 16.23	 1.87
			CHANNELS 3 Zrotation Xrotation Yrotation
			JOINT RightUpArm
			{
				OFFSET	-6.07	 0.00	 0.00
				CHANNELS 3 Zrotation Xrotation Yrotation
				JOINT RightLowArm
				{
					OFFSET	 0.00	-11.82	 0.00
					CHANNELS 3 Zrotation Xrotation Yrotation
					JOINT RightHand
					{
						OFFSET	 0.00	-10.65	 0.00
						CHANNELS 3 Zrotation Xrotation Yrotation
						End Site 
						{
							OFFSET	 0.00	-7.00	 0.00
						}
					}
				}
			}
		}
	}
	JOINT LeftUpLeg
	{
		OFFSET	 3.91	 0.00	 0.00
		CHANNELS 3 Zrotation Xrotation Yrotation
		JOINT LeftLowLeg
		{
			OFFSET	 0.00	-18.34	 0.00
			CHANNELS 3 Zrotation Xrotation Yrotation
			JOINT LeftFoot
			{
				OFFSET	 0.00	-17.37	 0.00
				CHANNELS 3 Zrotation Xrotation Yrotation
				End Site 
				{
					OFFSET	 0.00	-3.46	 0.00
				}
			}
		}
	}
	JOINT RightUpLeg
	{
		OFFSET	-3.91	 0.00	 0.00
		CHANNELS 3 Zrotation Xrotation Yrotation
		JOINT RightLowLeg
		{
			OFFSET	 0.00	-17.63	 0.00
			CHANNELS 3 Zrotation Xrotation Yrotation
			JOINT RightFoot
			{
				OFFSET	 0.00	-17.14	 0.00
				CHANNELS 3 Zrotation Xrotation Yrotation
				End Site 
				{
					OFFSET	 0.00	-3.75	 0.00
				}
			}
		}
	}
}
MOTION
Frames:    21
Frame Time: 0.033333
 6.07	 36.97	 107.41	 1.03	 2.91	 176.03	 4.86	 66.50	 13.89	-2.70	-9.57	 0.00	-12.74	-38.56	-8.15	 8.66	 0.00	-14.81	 15.52	-25.14	 17.52	-31.19	-33.71	-46.24	 0.59	-2.33	 0.02	-11.87	 0.00	-28.37	-95.74	-68.92	-103.07	 65.58	-21.05	 73.18	-1.93	 2.34	 0.08	 15.38	-34.84	 8.93	-13.37	 35.79	 29.28	 0.00	-21.38	 0.00	-8.18	-11.29	-1.61	 11.91	 49.50	-6.90	 0.00	-32.69	 0.00	
 5.69	 36.75	 105.52	 1.99	 3.47	 174.56	 0.48	 66.91	 20.68	-2.69	-9.58	 0.00	-12.73	-38.57	-8.14	 7.55	 0.00	-17.29	 15.99	-31.77	 20.46	-24.08	-21.64	-48.91	 0.45	-2.62	 0.02	-9.72	 0.00	-33.29	-92.27	-69.15	-99.22	 71.20	-21.54	 75.72	-1.99	 1.95	 0.07	 14.79	-33.28	 8.25	-11.52	 32.76	 30.58	 0.00	-19.07	 0.00	-8.15	-8.47	-1.21	 11.16	 50.43	-5.47	 0.00	-34.68	 0.00	
 5.41	 36.51	 103.56	 3.23	 4.69	 173.12	-4.95	 67.84	 26.27	-2.65	-9.64	 0.00	-12.69	-38.61	-8.07	 7.07	 0.00	-16.71	 15.74	-38.36	 22.05	-18.99	-13.04	-54.69	 0.28	-2.58	 0.01	-6.89	 0.00	-35.59	-84.92	-69.23	-91.01	 74.56	-25.47	 76.46	-1.98	 1.58	 0.05	 15.04	-31.23	 7.93	-11.23	 33.57	 32.34	 0.00	-19.09	 0.00	-7.76	-4.71	-0.64	 10.06	 50.87	-4.17	 0.00	-35.78	 0.00	
 5.25	 36.32	 101.54	 4.60	 6.49	 171.55	-12.42	 69.19	 28.32	-2.60	-9.72	 0.00	-12.63	-38.67	-7.98	 7.43	 0.00	-9.38	 14.70	-43.40	 21.16	-17.99	-10.16	-58.14	 0.22	-2.52	 0.01	-5.74	 0.00	-31.57	-64.95	-68.05	-69.47	 75.19	-35.80	 75.21	-1.85	 1.20	 0.04	 16.20	-28.51	 7.89	-12.74	 37.41	 34.15	 0.00	-20.64	 0.00	-7.23	-0.41	-0.05	 8.58	 51.50	-2.61	 0.00	-35.04	 0.00	
 5.11	 36.21	 99.49	 5.67	 8.45	 169.80	-21.55	 69.92	 25.88	-2.55	-9.80	 0.00	-12.56	-38.74	-7.88	 8.75	 0.00	 1.68	 16.00	-44.66	 20.56	-20.92	-12.07	-56.43	 0.31	-2.63	 0.01	-6.78	 0.00	-19.23	-42.45	-61.58	-45.90	 75.74	-48.31	 74.82	-1.67	 0.81	 0.02	 17.24	-24.71	 7.39	-14.93	 41.06	 35.40	 0.00	-21.17	 0.00	-7.29	 3.05	 0.39	 6.91	 53.72	-0.42	 0.00	-31.39	 0.00	
 4.94	 36.19	 97.48	 6.14	 9.82	 168.43	-29.32	 69.06	 22.72	-2.49	-9.88	 0.00	-12.49	-38.82	-7.77	 10.77	 0.00	 8.14	 20.89	-42.82	 22.93	-25.60	-15.64	-55.14	 0.42	-2.67	 0.02	-6.17	 0.00	-4.51	-34.33	-51.77	-37.03	 76.88	-55.86	 75.88	-1.59	 0.63	 0.02	 17.30	-20.44	 6.21	-16.58	 43.06	 35.68	 0.00	-20.55	 0.00	-8.02	 3.89	 0.55	 5.45	 58.36	 1.65	 0.00	-24.51	 0.00	
 4.74	 36.21	 95.68	 5.89	 9.71	 168.31	-31.72	 67.31	 19.77	-2.42	-9.97	 0.00	-12.42	-38.90	-7.66	 12.01	 0.00	 9.60	 25.96	-42.74	 26.72	-30.62	-16.56	-58.41	 0.48	-2.62	 0.02	-1.92	 0.00	 2.84	-33.91	-43.56	-34.39	 74.86	-55.79	 74.34	-1.59	 0.82	 0.02	 16.34	-18.38	 5.28	-17.29	 45.54	 35.52	 0.00	-20.97	 0.00	-8.82	 1.02	 0.16	 5.12	 64.92	 1.92	 0.00	-16.14	 0.00	
 4.57	 36.22	 94.00	 5.33	 8.29	 168.91	-29.22	 65.22	 15.19	-2.34	-10.07	 0.00	-12.35	-38.98	-7.54	 11.45	 0.00	 10.11	 31.28	-45.33	 31.69	-34.84	-13.97	-64.30	 0.51	-2.55	 0.02	 5.31	 0.00	 3.28	-36.66	-38.69	-33.63	 69.42	-47.94	 70.76	-1.62	 1.39	 0.04	 15.30	-18.61	 4.99	-18.04	 49.08	 36.32	 0.00	-23.33	 0.00	-9.15	-4.71	-0.76	 5.19	 72.12	 1.42	 0.00	-10.21	 0.00	
 4.48	 36.19	 92.26	 5.07	 6.64	 169.08	-25.45	 62.69	 9.37	-2.26	-10.15	 0.00	-12.27	-39.07	-7.42	 9.95	 0.00	 11.70	 36.93	-47.76	 36.93	-37.61	-10.67	-69.14	 0.52	-2.52	 0.02	 12.18	 0.00	 3.38	-39.78	-34.48	-32.92	 63.18	-37.24	 68.52	-1.66	 2.16	 0.06	 15.08	-18.37	 4.85	-19.84	 51.11	 38.21	 0.00	-25.98	 0.00	-8.52	-11.53	-1.71	 2.25	 78.33	 3.64	 0.00	-8.35	 0.00	
 4.48	 36.14	 90.57	 4.92	 4.80	 169.41	-21.12	 60.07	 5.34	-2.18	-10.24	 0.00	-12.19	-39.16	-7.30	 9.44	 0.00	 11.92	 40.31	-50.33	 40.71	-38.78	-8.69	-71.37	 0.53	-2.50	 0.02	 15.40	 0.00	 1.32	-40.77	-30.13	-30.31	 56.86	-28.22	 67.84	-1.70	 2.87	 0.09	 15.31	-17.84	 4.79	-21.48	 51.73	 39.37	 0.00	-27.88	 0.00	-7.18	-19.07	-2.36	 0.72	 82.02	 3.31	 0.00	-9.25	 0.00	
 4.54	 36.14	 89.02	 4.44	 2.78	 170.48	-16.79	 58.00	 5.16	-2.10	-10.31	 0.00	-12.11	-39.26	-7.18	 10.53	 0.00	 9.08	 40.43	-54.05	 42.36	-38.60	-8.88	-70.60	 0.53	-2.50	 0.02	 16.14	 0.00	-4.82	-41.10	-26.80	-27.12	 51.41	-21.42	 68.57	-1.77	 3.43	 0.11	 15.12	-17.77	 4.71	-21.90	 52.10	 38.92	 0.00	-28.92	 0.00	-6.40	-26.72	-2.89	 11.80	 81.80	-10.26	 0.00	-11.68	 0.00	
 4.60	 36.23	 87.53	 3.58	 1.00	 171.80	-13.42	 56.57	 6.33	-2.01	-10.37	 0.00	-12.04	-39.36	-7.06	 12.12	 0.00	 5.53	 39.54	-57.65	 43.01	-38.01	-10.89	-67.82	 0.54	-2.48	 0.02	 17.23	 0.00	-10.24	-43.27	-23.13	-24.80	 48.40	-16.53	 71.01	-1.82	 3.75	 0.12	 14.21	-17.40	 4.33	-21.51	 51.88	 37.69	 0.00	-29.30	 0.00	-6.69	-33.35	-3.69	 18.52	 77.06	-18.45	 0.00	-14.03	 0.00	
 4.66	 36.37	 86.01	 2.54	-0.70	 172.98	-10.73	 55.31	 5.88	-1.92	-10.41	 0.00	-11.97	-39.45	-6.96	 13.40	 0.00	 3.78	 38.74	-59.90	 43.12	-37.73	-13.89	-64.32	 0.56	-2.44	 0.02	 18.44	 0.00	-11.82	-46.12	-17.75	-21.85	 47.93	-14.57	 73.53	-1.83	 3.83	 0.12	 13.06	-16.46	 3.76	-21.10	 50.55	 36.52	 0.00	-29.32	 0.00	-7.38	-38.73	-4.63	 16.36	 68.89	-16.48	 0.00	-15.31	 0.00	
 4.73	 36.52	 84.45	 1.46	-2.70	 173.92	-8.26	 53.78	 3.44	-1.84	-10.43	 0.00	-11.91	-39.54	-6.86	 14.32	 0.00	 3.83	 37.87	-60.46	 42.54	-37.91	-17.53	-60.81	 0.58	-2.37	 0.02	 18.00	 0.00	-9.68	-46.50	-9.73	-15.15	 48.49	-18.94	 71.49	-1.77	 3.70	 0.11	 11.81	-15.28	 3.15	-20.44	 48.44	 35.51	 0.00	-29.34	 0.00	-7.78	-43.00	-5.32	 12.07	 58.31	-12.53	 0.00	-15.89	 0.00	
 4.84	 36.67	 82.87	 0.41	-5.10	 174.66	-5.87	 51.78	-0.15	-1.76	-10.43	 0.00	-11.86	-39.63	-6.78	 14.90	 0.00	 4.73	 37.04	-59.54	 41.57	-38.46	-21.46	-57.76	 0.60	-2.27	 0.02	 16.42	 0.00	-5.37	-44.40	-0.11	-6.12	 48.22	-29.21	 64.58	-1.71	 3.46	 0.10	 10.40	-14.24	 2.58	-19.04	 46.15	 34.65	 0.00	-29.55	 0.00	-7.67	-46.30	-5.56	 8.67	 46.86	-10.84	 0.00	-16.35	 0.00	
 4.97	 36.80	 81.25	-0.52	-7.69	 175.24	-3.56	 49.43	-3.93	-1.68	-10.39	 0.00	-11.82	-39.72	-6.71	 14.98	 0.00	 5.71	 36.67	-57.70	 40.75	-39.26	-24.99	-55.67	 0.62	-2.16	 0.02	 15.63	 0.00	-1.31	-42.21	 8.60	 1.42	 46.99	-40.82	 57.01	-1.65	 3.16	 0.09	 9.11	-13.40	 2.13	-17.49	 44.19	 34.03	 0.00	-29.82	 0.00	-7.07	-48.69	-5.32	 6.38	 36.98	-11.52	 0.00	-16.51	 0.00	
 5.16	 36.86	 79.52	-1.24	-9.76	 175.86	-1.05	 47.43	-6.88	-1.61	-10.32	 0.00	-11.79	-39.79	-6.67	 14.53	 0.00	 5.91	 36.85	-55.66	 40.37	-40.39	-27.56	-54.86	 0.63	-2.07	 0.02	 15.45	 0.00	 0.48	-40.83	 14.51	 6.26	 45.34	-49.56	 51.53	-1.60	 2.87	 0.08	 8.42	-12.33	 1.81	-16.68	 43.32	 33.33	 0.00	-29.95	 0.00	-6.25	-49.78	-4.78	 4.68	 31.00	-12.15	 0.00	-15.37	 0.00	
 5.37	 36.83	 77.62	-1.72	-10.35	 176.96	 2.16	 46.77	-9.44	-1.55	-10.21	 0.00	-11.77	-39.86	-6.65	 13.64	 0.00	 5.62	 37.08	-54.00	 40.10	-41.97	-29.10	-55.32	 0.64	-1.98	 0.02	 14.60	 0.00	 0.61	-39.65	 17.37	 8.45	 44.80	-53.99	 49.40	-1.58	 2.70	 0.07	 8.48	-10.56	 1.57	-16.80	 44.47	 31.95	 0.00	-29.31	 0.00	-5.95	-49.07	-4.50	 3.24	 29.68	-10.74	 0.00	-12.17	 0.00	
 5.56	 36.72	 75.56	-2.07	-9.51	 178.67	 6.28	 47.35	-12.66	-1.50	-10.06	 0.00	-11.78	-39.92	-6.65	 12.61	 0.00	 5.92	 36.43	-52.98	 39.11	-43.73	-29.80	-56.59	 0.65	-1.91	 0.02	 12.80	 0.00	 1.25	-38.37	 18.33	 8.72	 46.08	-55.38	 50.30	-1.60	 2.64	 0.07	 9.14	-8.92	 1.43	-17.49	 48.28	 30.18	 0.00	-26.26	 0.00	-6.77	-47.27	-4.99	 2.66	 32.80	-9.10	 0.00	-8.43	 0.00	
 5.71	 36.56	 73.43	-2.37	-7.81	-179.31	 10.83	 48.50	-16.41	-1.46	-9.87	 0.00	-11.80	-39.97	-6.69	 11.68	 0.00	 7.38	 34.00	-52.86	 36.67	-45.38	-29.84	-58.29	 0.65	-1.86	 0.02	 10.41	 0.00	 3.72	-37.27	 18.31	 7.78	 47.29	-54.57	 51.83	-1.63	 2.68	 0.08	 10.17	-8.54	 1.52	-18.67	 54.11	 29.78	 0.00	-18.18	 0.00	-8.65	-45.08	-6.15	 3.76	 39.05	-9.56	 0.00	-7.72	 0.00	
 5.84	 36.36	 71.25	-2.70	-5.34	-177.42	 15.21	 50.11	-19.57	-1.43	-9.62	 0.00	-11.85	-40.00	-6.76	 10.52	 0.00	 8.98	 30.50	-53.21	 33.37	-47.27	-29.32	-60.54	 0.66	-1.81	 0.02	 8.26	 0.00	 7.08	-37.16	 17.09	 6.01	 45.66	-50.50	 51.65	-1.66	 2.92	 0.08	 11.32	-9.08	 1.81	-21.31	 60.65	 32.45	 0.00	-6.18	 0.00	-10.69	-41.71	-7.16	 6.66	 45.50	-11.89	 0.00	-10.67	 0.00	
